<mxfile host="app.diagrams.net" modified="2023-09-21T04:37:39.809Z" agent="Mozilla/5.0 (Windows NT 10.0; Win64; x64) AppleWebKit/537.36 (KHTML, like Gecko) Chrome/116.0.0.0 Safari/537.36 OPR/102.0.0.0" etag="M5QyRU6CDcqsTrhuSZdE" version="21.8.0" type="device">
  <diagram name="PÃ¡gina-1" id="QnoU7TKSMhBxKTP8MkLn">
    <mxGraphModel dx="1079" dy="485" grid="1" gridSize="10" guides="1" tooltips="1" connect="1" arrows="1" fold="1" page="1" pageScale="1" pageWidth="850" pageHeight="1100" math="0" shadow="0">
      <root>
        <mxCell id="0" />
        <mxCell id="1" parent="0" />
        <mxCell id="9cdcEdQYwdAdk869OhbK-1" value="Interf Progr" style="shape=umlBoundary;whiteSpace=wrap;html=1;" vertex="1" parent="1">
          <mxGeometry x="210" y="80" width="100" height="80" as="geometry" />
        </mxCell>
        <mxCell id="9cdcEdQYwdAdk869OhbK-2" value="Consulta&lt;br&gt;Configuracion" style="ellipse;shape=umlControl;whiteSpace=wrap;html=1;" vertex="1" parent="1">
          <mxGeometry x="420" y="70" width="90" height="100" as="geometry" />
        </mxCell>
        <mxCell id="9cdcEdQYwdAdk869OhbK-3" value="MailSenderImpl" style="ellipse;shape=umlEntity;whiteSpace=wrap;html=1;" vertex="1" parent="1">
          <mxGeometry x="610" y="80" width="90" height="80" as="geometry" />
        </mxCell>
        <mxCell id="9cdcEdQYwdAdk869OhbK-4" value="APP" style="shape=umlActor;verticalLabelPosition=bottom;verticalAlign=top;html=1;" vertex="1" parent="1">
          <mxGeometry x="70" y="80" width="30" height="60" as="geometry" />
        </mxCell>
        <mxCell id="9cdcEdQYwdAdk869OhbK-6" value="&lt;br&gt;" style="endArrow=block;endFill=1;html=1;edgeStyle=orthogonalEdgeStyle;align=left;verticalAlign=top;rounded=0;" edge="1" parent="1" target="9cdcEdQYwdAdk869OhbK-1">
          <mxGeometry x="-1" relative="1" as="geometry">
            <mxPoint x="110" y="119.5" as="sourcePoint" />
            <mxPoint x="270" y="119.5" as="targetPoint" />
          </mxGeometry>
        </mxCell>
        <mxCell id="9cdcEdQYwdAdk869OhbK-8" value="&lt;br&gt;" style="edgeLabel;html=1;align=center;verticalAlign=middle;resizable=0;points=[];" vertex="1" connectable="0" parent="9cdcEdQYwdAdk869OhbK-6">
          <mxGeometry x="-0.9" y="7" relative="1" as="geometry">
            <mxPoint as="offset" />
          </mxGeometry>
        </mxCell>
        <mxCell id="9cdcEdQYwdAdk869OhbK-9" value="Consultar &lt;br&gt;configuracion" style="edgeLabel;html=1;align=center;verticalAlign=middle;resizable=0;points=[];" vertex="1" connectable="0" parent="9cdcEdQYwdAdk869OhbK-6">
          <mxGeometry x="-0.38" relative="1" as="geometry">
            <mxPoint x="19" y="-19" as="offset" />
          </mxGeometry>
        </mxCell>
        <mxCell id="9cdcEdQYwdAdk869OhbK-10" value="&lt;br&gt;" style="endArrow=block;endFill=1;html=1;edgeStyle=orthogonalEdgeStyle;align=left;verticalAlign=top;rounded=0;" edge="1" parent="1" target="9cdcEdQYwdAdk869OhbK-2">
          <mxGeometry x="-0.4546" y="-20" relative="1" as="geometry">
            <mxPoint x="310" y="119.5" as="sourcePoint" />
            <mxPoint x="420" y="120" as="targetPoint" />
            <mxPoint y="1" as="offset" />
          </mxGeometry>
        </mxCell>
        <mxCell id="9cdcEdQYwdAdk869OhbK-13" value="" style="endArrow=none;html=1;edgeStyle=orthogonalEdgeStyle;rounded=0;" edge="1" parent="1">
          <mxGeometry relative="1" as="geometry">
            <mxPoint x="510" y="119.5" as="sourcePoint" />
            <mxPoint x="610" y="120" as="targetPoint" />
          </mxGeometry>
        </mxCell>
        <mxCell id="9cdcEdQYwdAdk869OhbK-16" value="NoConfigException" style="ellipse;shape=umlControl;whiteSpace=wrap;html=1;" vertex="1" parent="1">
          <mxGeometry x="420" y="220" width="110" height="80" as="geometry" />
        </mxCell>
        <mxCell id="9cdcEdQYwdAdk869OhbK-17" value="" style="html=1;verticalAlign=bottom;endArrow=block;curved=0;rounded=0;entryX=0.455;entryY=0.075;entryDx=0;entryDy=0;entryPerimeter=0;" edge="1" parent="1" target="9cdcEdQYwdAdk869OhbK-16">
          <mxGeometry width="80" relative="1" as="geometry">
            <mxPoint x="470" y="170" as="sourcePoint" />
            <mxPoint x="550" y="170" as="targetPoint" />
          </mxGeometry>
        </mxCell>
        <mxCell id="9cdcEdQYwdAdk869OhbK-20" value="no hay configuracion" style="edgeLabel;html=1;align=center;verticalAlign=middle;resizable=0;points=[];" vertex="1" connectable="0" parent="9cdcEdQYwdAdk869OhbK-17">
          <mxGeometry x="-0.3018" y="-1" relative="1" as="geometry">
            <mxPoint as="offset" />
          </mxGeometry>
        </mxCell>
        <mxCell id="9cdcEdQYwdAdk869OhbK-21" value="enviar de config" style="ellipse;shape=umlControl;whiteSpace=wrap;html=1;" vertex="1" parent="1">
          <mxGeometry x="430" y="320" width="70" height="80" as="geometry" />
        </mxCell>
        <mxCell id="9cdcEdQYwdAdk869OhbK-22" value="hay configuracion" style="html=1;verticalAlign=bottom;endArrow=block;curved=0;rounded=0;exitX=0.933;exitY=0.76;exitDx=0;exitDy=0;exitPerimeter=0;entryX=0.886;entryY=0.25;entryDx=0;entryDy=0;entryPerimeter=0;" edge="1" parent="1" source="9cdcEdQYwdAdk869OhbK-2" target="9cdcEdQYwdAdk869OhbK-21">
          <mxGeometry width="80" relative="1" as="geometry">
            <mxPoint x="510" y="260" as="sourcePoint" />
            <mxPoint x="590" y="260" as="targetPoint" />
            <Array as="points">
              <mxPoint x="590" y="180" />
              <mxPoint x="590" y="290" />
            </Array>
          </mxGeometry>
        </mxCell>
        <mxCell id="9cdcEdQYwdAdk869OhbK-23" value="" style="html=1;verticalAlign=bottom;endArrow=block;curved=0;rounded=0;entryX=0.87;entryY=0.963;entryDx=0;entryDy=0;entryPerimeter=0;exitX=-0.009;exitY=0.5;exitDx=0;exitDy=0;exitPerimeter=0;" edge="1" parent="1" source="9cdcEdQYwdAdk869OhbK-16" target="9cdcEdQYwdAdk869OhbK-1">
          <mxGeometry width="80" relative="1" as="geometry">
            <mxPoint x="510" y="260" as="sourcePoint" />
            <mxPoint x="590" y="260" as="targetPoint" />
          </mxGeometry>
        </mxCell>
        <mxCell id="9cdcEdQYwdAdk869OhbK-24" value="" style="html=1;verticalAlign=bottom;endArrow=block;curved=0;rounded=0;entryX=0.59;entryY=1.038;entryDx=0;entryDy=0;entryPerimeter=0;exitX=-0.014;exitY=0.45;exitDx=0;exitDy=0;exitPerimeter=0;" edge="1" parent="1" source="9cdcEdQYwdAdk869OhbK-21" target="9cdcEdQYwdAdk869OhbK-1">
          <mxGeometry width="80" relative="1" as="geometry">
            <mxPoint x="510" y="260" as="sourcePoint" />
            <mxPoint x="590" y="260" as="targetPoint" />
          </mxGeometry>
        </mxCell>
      </root>
    </mxGraphModel>
  </diagram>
</mxfile>
